REM DIRINDEX 1\2,1\3,1\4,1\5,1\6
REM DIRNAME folder01,folder02,folder03,folder04,folder05,folder06
TITLE ""
FILE "Disc1Track63.mp3" MP3
  TRACK 01 AUDIO
    TITLE "3:cjc030_01580"
    INDEX 01 00:00:00
  TRACK 02 AUDIO
    TITLE "0:"
    INDEX 01 00:01:11
  TRACK 03 AUDIO
    TITLE "4:cjc030_01581"
    INDEX 01 00:01:19
  TRACK 04 AUDIO
    TITLE "0:"
    INDEX 01 00:02:20
  TRACK 05 AUDIO
    TITLE "5:cjc030_01582"
    INDEX 01 00:02:30
  TRACK 06 AUDIO
    TITLE "0:"
    INDEX 01 00:03:43
  TRACK 07 AUDIO
    TITLE "3:cjc030_01583"
    INDEX 01 00:04:21
  TRACK 08 AUDIO
    TITLE "0:"
    INDEX 01 00:05:32
  TRACK 09 AUDIO
    TITLE "4:cjc030_01584"
    INDEX 01 00:05:40
  TRACK 10 AUDIO
    TITLE "0:"
    INDEX 01 00:07:41
  TRACK 11 AUDIO
    TITLE "5:cjc030_01585"
    INDEX 01 00:07:52
  TRACK 12 AUDIO
    TITLE "0:"
    INDEX 01 00:08:60
  TRACK 13 AUDIO
    TITLE "6:cjc030_01586"
    INDEX 01 00:09:00
  TRACK 14 AUDIO
    TITLE "0:"
    INDEX 01 00:11:52
  TRACK 15 AUDIO
    TITLE "3:cjc030_01587"
    INDEX 01 00:12:24
  TRACK 16 AUDIO
    TITLE "0:"
    INDEX 01 00:13:30
  TRACK 17 AUDIO
    TITLE "4:cjc030_01588"
    INDEX 01 00:13:41
  TRACK 18 AUDIO
    TITLE "0:"
    INDEX 01 00:14:58
  TRACK 19 AUDIO
    TITLE "5:cjc030_01589"
    INDEX 01 00:14:66
  TRACK 20 AUDIO
    TITLE "0:"
    INDEX 01 00:16:00
  TRACK 21 AUDIO
    TITLE "3:cjc030_01590"
    INDEX 01 00:16:53
  TRACK 22 AUDIO
    TITLE "0:"
    INDEX 01 00:17:74
  TRACK 23 AUDIO
    TITLE "4:cjc030_01591"
    INDEX 01 00:18:07
  TRACK 24 AUDIO
    TITLE "0:"
    INDEX 01 00:19:01
  TRACK 25 AUDIO
    TITLE "5:cjc030_01592"
    INDEX 01 00:19:09
  TRACK 26 AUDIO
    TITLE "0:"
    INDEX 01 00:20:30
  TRACK 27 AUDIO
    TITLE "3:cjc030_01593"
    INDEX 01 00:21:09
  TRACK 28 AUDIO
    TITLE "0:"
    INDEX 01 00:22:29
  TRACK 29 AUDIO
    TITLE "4:cjc030_01594"
    INDEX 01 00:22:40
  TRACK 30 AUDIO
    TITLE "0:"
    INDEX 01 00:24:18
  TRACK 31 AUDIO
    TITLE "5:cjc030_01595"
    INDEX 01 00:24:25
  TRACK 32 AUDIO
    TITLE "0:"
    INDEX 01 00:25:46
  TRACK 33 AUDIO
    TITLE "6:cjc030_01596"
    INDEX 01 00:25:58
  TRACK 34 AUDIO
    TITLE "0:"
    INDEX 01 00:29:46
  TRACK 35 AUDIO
    TITLE "3:cjc030_01597"
    INDEX 01 00:30:24
  TRACK 36 AUDIO
    TITLE "0:"
    INDEX 01 00:31:55
  TRACK 37 AUDIO
    TITLE "4:cjc030_01598"
    INDEX 01 00:31:63
  TRACK 38 AUDIO
    TITLE "0:"
    INDEX 01 00:33:07
  TRACK 39 AUDIO
    TITLE "5:cjc030_01599"
    INDEX 01 00:33:15
  TRACK 40 AUDIO
    TITLE "0:"
    INDEX 01 00:34:47
  TRACK 41 AUDIO
    TITLE "3:cjc030_01600"
    INDEX 01 00:35:25
  TRACK 42 AUDIO
    TITLE "0:"
    INDEX 01 00:36:46
  TRACK 43 AUDIO
    TITLE "4:cjc030_01601"
    INDEX 01 00:36:54
  TRACK 44 AUDIO
    TITLE "0:"
    INDEX 01 00:37:71
  TRACK 45 AUDIO
    TITLE "5:cjc030_01602"
    INDEX 01 00:38:06
  TRACK 46 AUDIO
    TITLE "0:"
    INDEX 01 00:39:25
  TRACK 47 AUDIO
    TITLE "6:cjc030_01603"
    INDEX 01 00:39:39
  TRACK 48 AUDIO
    TITLE "0:"
    INDEX 01 00:44:14
  TRACK 49 AUDIO
    TITLE "3:cjc030_01604"
    INDEX 01 00:44:63
  TRACK 50 AUDIO
    TITLE "0:"
    INDEX 01 00:46:23
  TRACK 51 AUDIO
    TITLE "4:cjc030_01605"
    INDEX 01 00:46:31
  TRACK 52 AUDIO
    TITLE "0:"
    INDEX 01 00:47:25
  TRACK 53 AUDIO
    TITLE "5:cjc030_01606"
    INDEX 01 00:47:34
  TRACK 54 AUDIO
    TITLE "0:"
    INDEX 01 00:48:67
  TRACK 55 AUDIO
    TITLE "3:cjc030_01607"
    INDEX 01 00:49:41
  TRACK 56 AUDIO
    TITLE "0:"
    INDEX 01 00:51:03
  TRACK 57 AUDIO
    TITLE "4:cjc030_01608"
    INDEX 01 00:51:13
  TRACK 58 AUDIO
    TITLE "0:"
    INDEX 01 00:52:30
  TRACK 59 AUDIO
    TITLE "5:cjc030_01609"
    INDEX 01 00:52:37
  TRACK 60 AUDIO
    TITLE "0:"
    INDEX 01 00:53:72
  TRACK 61 AUDIO
    TITLE "3:cjc030_01610"
    INDEX 01 00:54:50
  TRACK 62 AUDIO
    TITLE "0:"
    INDEX 01 00:56:00
  TRACK 63 AUDIO
    TITLE "4:cjc030_01611"
    INDEX 01 00:56:10
  TRACK 64 AUDIO
    TITLE "0:"
    INDEX 01 00:58:46
  TRACK 65 AUDIO
    TITLE "5:cjc030_01612"
    INDEX 01 00:58:58
  TRACK 66 AUDIO
    TITLE "0:"
    INDEX 01 01:00:04
  TRACK 67 AUDIO
    TITLE "6:cjc030_01613"
    INDEX 01 01:00:13
  TRACK 68 AUDIO
    TITLE "0:"
    INDEX 01 01:04:19
  TRACK 69 AUDIO
    TITLE "3:cjc030_01614"
    INDEX 01 01:04:66
  TRACK 70 AUDIO
    TITLE "0:"
    INDEX 01 01:06:14
  TRACK 71 AUDIO
    TITLE "4:cjc030_01615"
    INDEX 01 01:06:22
  TRACK 72 AUDIO
    TITLE "0:"
    INDEX 01 01:10:39
  TRACK 73 AUDIO
    TITLE "5:cjc030_01616"
    INDEX 01 01:10:49
  TRACK 74 AUDIO
    TITLE "0:"
    INDEX 01 01:11:70
  TRACK 75 AUDIO
    TITLE "6:cjc030_01617"
    INDEX 01 01:12:09
  TRACK 76 AUDIO
    TITLE "0:"
    INDEX 01 01:15:03
  TRACK 77 AUDIO
    TITLE "3:cjc030_01618"
    INDEX 01 01:15:52
  TRACK 78 AUDIO
    TITLE "0:"
    INDEX 01 01:16:58
  TRACK 79 AUDIO
    TITLE "4:cjc030_01619"
    INDEX 01 01:16:67
  TRACK 80 AUDIO
    TITLE "0:"
    INDEX 01 01:17:55
  TRACK 81 AUDIO
    TITLE "5:cjc030_01620"
    INDEX 01 01:17:63
  TRACK 82 AUDIO
    TITLE "0:"
    INDEX 01 01:18:70
  TRACK 83 AUDIO
    TITLE "3:cjc030_01621"
    INDEX 01 01:19:48
  TRACK 84 AUDIO
    TITLE "0:"
    INDEX 01 01:20:65
  TRACK 85 AUDIO
    TITLE "4:cjc030_01622"
    INDEX 01 01:20:73
  TRACK 86 AUDIO
    TITLE "0:"
    INDEX 01 01:24:55
  TRACK 87 AUDIO
    TITLE "5:cjc030_01623"
    INDEX 01 01:24:63
  TRACK 88 AUDIO
    TITLE "0:"
    INDEX 01 01:26:07
  TRACK 89 AUDIO
    TITLE "6:cjc030_01624"
    INDEX 01 01:26:19
  TRACK 90 AUDIO
    TITLE "0:"
    INDEX 01 01:29:66
  TRACK 91 AUDIO
    TITLE "3:cjc030_01625"
    INDEX 01 01:30:40
  TRACK 92 AUDIO
    TITLE "0:"
    INDEX 01 01:31:51
  TRACK 93 AUDIO
    TITLE "4:cjc030_01626"
    INDEX 01 01:31:61
  TRACK 94 AUDIO
    TITLE "0:"
    INDEX 01 01:35:31
  TRACK 95 AUDIO
    TITLE "5:cjc030_01627"
    INDEX 01 01:35:43
  TRACK 96 AUDIO
    TITLE "0:"
    INDEX 01 01:36:52
  TRACK 97 AUDIO
    TITLE "6:cjc030_01628"
    INDEX 01 01:36:66
  TRACK 98 AUDIO
    TITLE "0:"
    INDEX 01 01:40:38
